<svg xmlns="http://www.w3.org/2000/svg" viewBox="0 0 320 320" width="320" height="320">

  <!-- MAKI ROLL top view - top left -->
  <g transform="translate(75,72) rotate(-12)">
    <circle r="32" fill="#111"/>
    <circle r="25" fill="#f8f3eb"/>
    <circle r="15" fill="#ff6b35" opacity="0.85"/>
    <circle r="6" fill="#111"/>
    <circle cx="-23" cy="0" r="2.2" fill="white" opacity="0.38"/>
    <circle cx="23"  cy="0" r="2.2" fill="white" opacity="0.38"/>
    <circle cx="0" cy="-23" r="2.2" fill="white" opacity="0.38"/>
    <circle cx="0"  cy="23" r="2.2" fill="white" opacity="0.38"/>
    <circle r="20" fill="none" stroke="#e0d0bc" stroke-width="1" stroke-dasharray="2.5,2.5"/>
  </g>

  <!-- SHRIMP NIGIRI - top right -->
  <g transform="translate(242,70) rotate(18)">
    <ellipse rx="32" ry="19" fill="#f8f3eb" stroke="#111" stroke-width="2.2"/>
    <rect x="-32" y="-3" width="64" height="7" rx="2" fill="#111"/>
    <path d="M-24,-3 C-22,-24 -4,-28 16,-16 C22,-10 22,-2 16,5 L-22,5 Z"
          fill="#ff6b35" stroke="#111" stroke-width="1.5"/>
    <path d="M-14,-22 C-4,-26 8,-24 16,-16" fill="none" stroke="#c94418" stroke-width="1.2" opacity="0.65"/>
    <path d="M-18,-12 C-6,-18 8,-16 16,-8"  fill="none" stroke="#c94418" stroke-width="1.2" opacity="0.65"/>
    <path d="M16,-16 C24,-22 30,-12 22,4"   fill="#ff6b35" stroke="#111" stroke-width="1.3"/>
    <path d="M16,-16 C22,-24 32,-14 22,4"   fill="#ff6b35" stroke="#111" stroke-width="1.3"/>
  </g>

  <!-- WAVY RICE SQUARE - center -->
  <g transform="translate(165,162) rotate(8)">
    <rect x="-36" y="-36" width="72" height="72" rx="18" fill="#f8f3eb" stroke="#ff6b35" stroke-width="2.2"/>
    <path d="M-28,-22 Q-20,-30 -12,-22 Q-4,-14 4,-22 Q12,-30 20,-22 Q28,-30 36,-22" fill="none" stroke="#ffb088" stroke-width="1.5"/>
    <path d="M-28,-8  Q-20,-16 -12,-8  Q-4,0   4,-8  Q12,-16 20,-8  Q28,-16 36,-8"  fill="none" stroke="#ffb088" stroke-width="1.5"/>
    <path d="M-28,6   Q-20,-2  -12,6   Q-4,14  4,6   Q12,-2  20,6   Q28,-2  36,6"   fill="none" stroke="#ffb088" stroke-width="1.5"/>
    <path d="M-28,20  Q-20,12  -12,20  Q-4,28  4,20  Q12,12  20,20  Q28,12  36,20"  fill="none" stroke="#ffb088" stroke-width="1.5"/>
  </g>

  <!-- MAKI ROLL side view - bottom left -->
  <g transform="translate(78,232) rotate(-8)">
    <ellipse rx="42" ry="30" fill="#111"/>
    <ellipse rx="34" ry="23" fill="#f8f3eb"/>
    <ellipse rx="34" ry="23" fill="none" stroke="#e0d0bc" stroke-width="1" stroke-dasharray="3,2"/>
    <ellipse rx="20" ry="14" fill="#ff6b35" opacity="0.8"/>
    <ellipse rx="9"  ry="6"  fill="#111" opacity="0.85"/>
  </g>

  <!-- GUNKAN salmon roe - bottom right -->
  <g transform="translate(248,238) rotate(12)">
    <ellipse rx="34" ry="24" fill="#111"/>
    <ellipse rx="26" ry="17" fill="#f8f3eb"/>
    <ellipse cx="0" cy="-14" rx="23" ry="11" fill="#ff6b35" opacity="0.85"/>
    <circle cx="-14" cy="-15" r="5.5" fill="#ff8c55" stroke="#c94418" stroke-width="0.8"/>
    <circle cx="0"   cy="-18" r="5.5" fill="#ff8c55" stroke="#c94418" stroke-width="0.8"/>
    <circle cx="14"  cy="-15" r="5.5" fill="#ff8c55" stroke="#c94418" stroke-width="0.8"/>
    <circle cx="-7"  cy="-9"  r="4.5" fill="#ff8c55" stroke="#c94418" stroke-width="0.8"/>
    <circle cx="7"   cy="-9"  r="4.5" fill="#ff8c55" stroke="#c94418" stroke-width="0.8"/>
  </g>

  <!-- Orange dots -->
  <circle cx="155" cy="22"  r="6"   fill="#ff6b35"/>
  <circle cx="22"  cy="165" r="6.5" fill="#ff6b35"/>
  <circle cx="298" cy="148" r="5.5" fill="#ff6b35"/>
  <circle cx="162" cy="298" r="6"   fill="#ff6b35"/>
  <circle cx="112" cy="168" r="3.5" fill="#ff6b35"/>
  <circle cx="290" cy="178" r="3.5" fill="#ff6b35"/>
  <circle cx="178" cy="228" r="3.5" fill="#ff6b35"/>

  <!-- Black dots -->
  <circle cx="182" cy="68"  r="5"   fill="#111"/>
  <circle cx="298" cy="22"  r="5"   fill="#111"/>
  <circle cx="22"  cy="298" r="5"   fill="#111"/>
  <circle cx="298" cy="298" r="4.5" fill="#111"/>
  <circle cx="55"  cy="108" r="3"   fill="#111"/>
  <circle cx="220" cy="165" r="3"   fill="#111"/>
  <circle cx="62"  cy="290" r="3"   fill="#111"/>

  <!-- Outline dots -->
  <circle cx="132" cy="120" r="4.5" fill="none" stroke="#111"     stroke-width="1.8"/>
  <circle cx="210" cy="130" r="4"   fill="none" stroke="#ff6b35"  stroke-width="1.8"/>
  <circle cx="42"  cy="50"  r="4"   fill="none" stroke="#111"     stroke-width="1.8"/>
  <circle cx="268" cy="62"  r="5"   fill="none" stroke="#ff6b35"  stroke-width="2"/>
  <circle cx="140" cy="290" r="4.5" fill="none" stroke="#ff6b35"  stroke-width="1.8"/>

</svg>
